<svg version="1.2" xmlns="http://www.w3.org/2000/svg" viewBox="0 0 87 70" width="70" height="70"><defs><clipPath clipPathUnits="userSpaceOnUse" id="cp1"><path d="m-1048-3455h1920v3915h-1920z"/></clipPath><linearGradient id="P" gradientUnits="userSpaceOnUse"/><linearGradient id="g1" x1="13.3" y1="67.1" x2="76" y2="4.4" href="#P"><stop stop-color="#2aa4f4"/><stop offset="1" stop-color="#007ad9"/></linearGradient></defs><style>.a{fill:url(#g1)}</style><g clip-path="url(#cp1)"><path class="a" d="m78 17.4q0.1 1.2 0.1 2.3c0 23.4-18 50.3-50.8 50.3-10 0-19.4-2.9-27.3-7.9q2.1 0.2 4.3 0.2c8.3 0 16-2.8 22.1-7.5-7.8-0.2-14.4-5.3-16.7-12.3 1.1 0.2 2.3 0.3 3.4 0.3q2.4 0 4.7-0.6c-8.2-1.7-14.3-8.8-14.3-17.4v-0.2c2.4 1.3 5.2 2.1 8.1 2.2-4.8-3.1-7.9-8.5-7.9-14.7 0-3.2 0.8-6.3 2.4-8.9 8.8 10.7 21.9 17.8 36.7 18.5q-0.4-2-0.5-4c0-9.8 8-17.7 17.9-17.7 5.1 0 9.7 2.1 13 5.6 4-0.8 7.9-2.3 11.3-4.3-1.3 4.1-4.2 7.6-7.8 9.8q5.4-0.7 10.2-2.8c-2.4 3.5-5.4 6.7-8.9 9.1z"/></g></svg>