<svg version="1.2" xmlns="http://www.w3.org/2000/svg" viewBox="0 0 93 65" width="70" height="70"><defs><clipPath clipPathUnits="userSpaceOnUse" id="cp1"><path d="m-1314-3457h1920v3915h-1920z"/></clipPath></defs><style>.a{fill:#f00}.b{fill:#fff}</style><g clip-path="url(#cp1)"><path class="a" d="m90.1 54.8c-1 3.9-4.1 7-8 8.1-7.1 1.9-35.5 1.9-35.5 1.9 0 0-28.5 0-35.6-1.9-3.9-1.1-7-4.2-8-8.1-3-12.1-2.2-31.2-0.1-43.8 1.1-3.9 4.2-7 8.1-8 7-1.9 35.5-2 35.5-2 0 0 28.5 0 35.5 1.9 4 1.1 7 4.2 8.1 8.1 3 12.1 2.3 31.2 0 43.8z"/><path class="b" d="m35.9 17.7l26.5 15.3-26.5 15.4z"/></g></svg>